<svg xmlns="http://www.w3.org/2000/svg" width="400" height="400" viewBox="0 0 400 400" fill="none">
	<defs>
		<style>
			.highlight {
				stroke: red;
				stroke-width:8;
			}
			.detail {
				stroke: #b8c0e0;
				stroke-width:8;
				fill: #b8c0e0;
			}
		</style>
	</defs>

	<!-- Antenna -->
	<line x1="200" y1="400" x2="200" y2="248" class="detail" />
	<circle cx="200" cy="200"  r="48" class="detail" />

	<!-- Radio lines -->
	<path class="highlight" d="
		M 140 260 A 100 100 0 0 1 140 140
		M 100 280 A 100 120 0 0 1 100 120
		M 60  300 A 100 140 0 0 1 60  100

		M 260 140 A 100 100 0 0 1 260 260
		M 300 120 A 100 120 0 0 1 300 280
		M 340 100 A 100 140 0 0 1 340 300
	"/>
</svg>
